<?xml version="1.0" standalone="no"?>
<!DOCTYPE svg PUBLIC "-//W3C//DTD SVG 20010904//EN"
 "http://www.w3.org/TR/2001/REC-SVG-20010904/DTD/svg10.dtd">
<svg version="1.0" xmlns="http://www.w3.org/2000/svg"
 width="512.000000pt" height="512.000000pt" viewBox="0 0 512.000000 512.000000"
 preserveAspectRatio="xMidYMid meet">
<metadata>
Created by potrace 1.14, written by Peter Selinger 2001-2017
</metadata>
<g transform="translate(0.000000,512.000000) scale(0.100000,-0.100000)"
fill="#000000" stroke="none">
<path d="M397 5104 c-99 -24 -167 -62 -243 -138 -77 -78 -114 -144 -139 -248
-22 -95 -22 -4221 0 -4316 25 -104 62 -170 139 -248 78 -77 144 -114 248 -139
95 -22 4221 -22 4316 0 104 25 170 62 248 139 77 78 114 144 139 248 22 95 22
4221 0 4316 -25 104 -62 170 -139 248 -78 77 -144 114 -248 139 -92 22 -4231
21 -4321 -1z m1420 -1986 c-3 -877 -6 -1042 -20 -1153 -64 -496 -204 -758
-481 -894 -165 -81 -389 -114 -633 -93 -172 14 -297 47 -428 112 -150 74 -142
57 -94 190 22 62 42 117 45 121 2 5 33 -7 68 -26 130 -72 286 -113 461 -122
390 -20 609 118 703 442 67 232 73 336 79 1463 l5 982 150 0 149 0 -4 -1022z
m1065 121 l3 -902 853 902 853 901 172 0 171 0 -45 -47 c-25 -27 -286 -307
-579 -623 -293 -316 -560 -602 -592 -636 l-59 -61 662 -864 c364 -475 666
-870 672 -876 7 -10 -27 -13 -166 -13 l-174 0 -592 778 c-326 427 -596 777
-601 777 -4 0 -137 -133 -294 -295 l-285 -295 0 -482 -1 -483 -155 0 -155 0 0
1560 0 1560 155 0 155 0 2 -901z"/>
</g>
</svg>
